<svg xmlns="http://www.w3.org/2000/svg" width="1920" height="40"><path fill-rule="evenodd" d="m1827.156 15.021-.027-.027h6.656l-.026.027h-6.603zm-2.191 9.015h11.004l-5.508-5.478 3.298-3.537H1920v24.054H.001V15.013h271.883l7.653-8.083h12.921l15.968 17.106.023-.023.018.023 9.171-9.015h145.603l3.298 3.537-5.508 5.478h11.004l-5.496-5.478 3.305-3.537h81.713l4.694-4.443 9.246-9.22 6.166 5.708 31.247-.011h5.009l12.659 12.928h33.631l7.239-7.026 74.261.038 5.771 5.559 8.649-8.624 2.891 3.065 165.161-.038L930.942.066l24.051 23.97.007-.012.012.012 9.052-9.023h3.842l2.099 2.093-3.335 3.313h6.656l-3.321-3.313 2.062-2.051 77.933-.032v-.01l14.03.004 7.97-.004v.006l153.933.036 2.061 2.051-3.32 3.313h6.657l-3.337-3.313 2.1-2.093h3.842l9.053 9.023.011-.012.007.012 24.051-23.97 12.761 12.891 89.161.038 2.891-3.065 8.649 8.624 5.77-5.497 249.262-.038 7.238 6.964h33.632l12.658-12.991 36.257.011 6.165-5.645 9.247 9.22 4.694 4.443h81.713l3.305 3.537-5.496 5.478zM341.624 18.857h-1.735v5.179h1.735v-5.179zm2.624 0h-1.73v5.179h1.73v-5.179zm12.122 0h-1.73v5.179h1.73v-5.179zm20.798 0h-5.195v5.179h5.195v-5.179zm207.507-6.509h-1.734v1.725h1.734v-1.725zm6.641 0h-1.734v5.178h1.734v-5.178zm13.435 0h-1.734v1.725h1.734v-1.725zm0 3.454h-1.734v1.724h1.734v-1.724zm1089.232-3.454h-1.734v1.725h1.734v-1.725zm0 3.454h-1.734v1.724h1.734v-1.724zm13.435-3.454h-1.735v5.178h1.735v-5.178zm6.641 0h-1.735v1.725h1.735v-1.725zM463.214 14.994h6.657l-.027.027h-6.603l-.027-.027zm291.008-9.018-4.093 3.954-4.104-3.954h8.197zm621.753 0-4.104 3.954-4.093-3.954h8.197z"/></svg>