<svg xmlns="http://www.w3.org/2000/svg" width="1920" height="39"><path fill-rule="evenodd" d="m1877.759 23.791-3.298-3.287 5.508-5.477h-11.004l5.496 5.477-3.305 3.287h-81.714l-4.693 4.693-9.247 9.22-6.165-6.145-31.248.136h-5.009l-12.658-12.616h-33.632l-7.238 7.214-293.262-.038-5.77-5.747-8.649 8.624-2.891-2.877-165.161.038-12.761 12.703-24.051-23.969-.007.011-.011-.011-9.053 9.022h-3.842l-2.1-2.093 3.336-3.313h-6.656l3.32 3.313-2.061 2.051-77.933.033v.009l-11-.005-11 .005v-.009l-77.933-.033-2.062-2.051 3.321-3.313h-6.656l3.335 3.313-2.099 2.093h-3.842l-9.052-9.022-.012.011-.007-.011-24.051 23.969-12.761-12.703-100.161-.038-2.891 2.877-8.649-8.624-5.77 5.747-139.262.038-7.239-7.214h-33.631l-12.659 12.616h-5.009l-31.247-.136-6.166 6.145-9.246-9.22-4.694-4.693h-81.713l-3.305-3.287 5.496-5.477h-11.004l5.508 5.477-3.298 3.287H204.638l-9.171-8.764-.018.022-.023-.022-15.968 16.668h-12.921l-7.653-7.646H.001V-.012h1919.997v24.061l-42.239-.258zM228.624 15.027h-1.735v5.178h1.735v-5.178zm2.624 0h-1.73v5.178h1.73v-5.178zm12.122 0h-1.73v5.178h1.73v-5.178zm20.798 0h-5.195v5.178h5.195v-5.178zm320.507 9.962h-1.734v1.725h1.734v-1.725zm6.641-3.453h-1.734v5.178h1.734v-5.178zm13.435 0h-1.734v1.724h1.734v-1.724zm0 3.453h-1.734v1.725h1.734v-1.725zm1133.232-3.453h-1.734v1.724h1.734v-1.724zm0 3.453h-1.734v1.725h1.734v-1.725zm13.435-3.453h-1.735v5.178h1.735v-5.178zm6.641 3.453h-1.735v1.725h1.735v-1.725zm119.726-1.171h-6.656l.027-.027h6.603l.026.027zm-510.007 9.393 4.093-4.079 4.104 4.079h-8.197zm-897.907-9.393h-6.657l.027-.027h6.603l.027.027z"/></svg>